Coordinates
version=1
nRows=25
nColumns=33
inDegrees=yes

Units are S.I. units (second, meters, Newtons, ...)
Angles are in degrees.

endheader
time	ground_thorax_rot_x	ground_thorax_rot_y	ground_thorax_rot_z	ground_thorax_tx	ground_thorax_ty	ground_thorax_tz	clav_prot_r	clav_elev_r	scapula_abduction_r	scapula_elevation_r	scapula_upward_rot_r	scapula_winging_r	shoulder_elv_r	plane_of_elev_r	axial_rot_r	elbow_flexion_r	pro_sup_r	wrist_flex_r	wrist_dev_r	clav_prot_l	clav_elev_l	scapula_abduction_l	scapula_elevation_l	scapula_upward_rot_l	scapula_winging_l	shoulder_elv_l	plane_of_elev_l	axial_rot_l	elbow_flexion_l	pro_sup_l	wrist_flex_l	wrist_dev_l	
2.8300	-36.609894	-1.839171	5.158670	43.770898	777.602042	-39.198749	15.310833	-45.000000	44.999994	-45.000000	-8.376201	-3327.086120	-651.233610	20.172225	180.000000	2163.748312	-166.096275	12.192483	12.232446	16.413918	23.587112	-43.328472	-41.283430	-45.000000	-2091.554188	-3142.842871	20.694657	-180.000000	1435.398831	154.873972	10.173190	-11.845734	
2.8400	-36.521272	-1.962328	5.478376	43.793986	777.339802	-39.410621	15.488012	-45.000000	44.999990	-45.000000	-8.795694	-3327.106116	-651.212816	20.210842	180.000000	2163.800510	-166.254046	12.162527	12.185558	16.190790	23.449489	-43.099631	-41.238982	-45.000000	-2091.583101	-3142.926777	20.671153	-180.000000	1435.444680	154.695484	10.205020	-11.795549	
2.8500	-36.416327	-2.086818	5.806224	43.777851	777.098037	-39.619215	15.640417	-45.000000	44.999981	-45.000000	-9.187871	-3327.115998	-651.141889	20.221446	180.000000	2163.822246	-166.429895	12.046457	12.146150	16.001161	23.352252	-42.869384	-41.143990	-45.000000	-2091.605568	-3142.958478	20.629981	-180.000000	1435.485756	154.519622	10.334333	-11.640358	
2.8600	-36.350712	-2.177570	6.098652	43.682258	776.900168	-39.823154	15.783255	-45.000000	44.999967	-45.000000	-9.541735	-3327.137473	-651.109137	20.232279	180.000000	2163.863881	-166.664560	11.969487	12.110368	15.818889	23.301136	-42.654061	-41.133302	-45.000000	-2091.642059	-3142.994463	20.601214	-180.000000	1435.506645	154.327777	10.406599	-11.560733	
2.8700	-36.299490	-2.248075	6.365668	43.497518	776.751071	-40.020881	15.915257	-45.000000	44.999941	-45.000000	-9.857869	-3327.170510	-651.078273	20.244262	180.000000	2163.908525	-166.953048	11.908262	12.076073	15.649452	23.284816	-42.448153	-41.152926	-45.000000	-2091.681936	-3143.020997	20.575271	-180.000000	1435.521698	154.108032	10.457702	-11.510502	
2.8800	-36.263368	-2.302324	6.605171	43.209296	776.659365	-40.211319	16.031260	-45.000000	44.999894	-45.000000	-10.136006	-3327.213436	-651.051329	20.255317	180.000000	2163.948499	-167.290145	11.846713	12.046786	15.492523	23.309322	-42.246986	-41.202450	-45.000000	-2091.722615	-3143.035706	20.555422	-180.000000	1435.529980	153.852407	10.498760	-11.471596	
2.8900	-36.231670	-2.347976	6.821954	42.812216	776.629501	-40.394121	16.142926	-45.000000	44.999810	-45.000000	-10.385237	-3327.273153	-651.019450	20.279515	180.000000	2163.989482	-167.666531	11.813589	12.018215	15.337608	23.338549	-42.056788	-41.256813	-45.000000	-2091.748090	-3143.050787	20.537752	-180.000000	1435.541702	153.544048	10.514690	-11.461007	
2.9000	-36.207539	-2.392227	7.017703	42.305691	776.664508	-40.569630	16.243879	-45.000000	44.999659	-45.000000	-10.614661	-3327.340642	-650.986331	20.304431	180.000000	2164.017456	-168.062623	11.774142	11.994366	15.186893	23.394341	-41.858856	-41.326632	-45.000000	-2091.774604	-3143.060048	20.523298	-180.000000	1435.553033	153.180646	10.530686	-11.441513	
2.9100	-36.190131	-2.438928	7.198390	41.689605	776.768457	-40.738910	16.350211	-45.000000	44.999389	-45.000000	-10.837223	-3327.423323	-650.954753	20.340737	180.000000	2164.042956	-168.473208	11.763650	11.975053	15.030453	23.435047	-41.667105	-41.406350	-45.000000	-2091.782801	-3143.086487	20.512846	-180.000000	1435.564573	152.752465	10.531044	-11.438558	
2.9200	-36.191642	-2.490164	7.366587	40.963690	776.946416	-40.903248	16.452295	-45.000000	44.998905	-45.000000	-11.055081	-3327.513549	-650.937877	20.369829	180.000000	2164.054071	-168.888938	11.752103	11.961205	14.873015	23.501649	-41.457612	-41.528856	-45.000000	-2091.805072	-3143.114532	20.504305	-180.000000	1435.563014	152.264439	10.527687	-11.432879	
2.9300	-36.208196	-2.558111	7.537451	40.127032	777.204433	-41.064095	16.563701	-45.000000	44.998039	-45.000000	-11.281357	-3327.607924	-650.926204	20.389868	180.000000	2164.053577	-169.315155	11.754175	11.951544	14.720203	23.589032	-41.232812	-41.683804	-45.000000	-2091.839686	-3143.143670	20.479853	-180.000000	1435.548895	151.709144	10.523226	-11.428422	
2.9400	-36.248337	-2.645198	7.708751	39.178230	777.549427	-41.222880	16.677681	-45.000000	44.996487	-45.000000	-11.519634	-3327.700531	-650.930115	20.393475	180.000000	2164.037764	-169.750519	11.751564	11.944764	14.571066	23.743361	-40.963796	-41.902352	-45.000000	-2091.922329	-3143.156594	20.440287	-180.000000	1435.520341	151.090938	10.510824	-11.422528	
2.9500	-36.301600	-2.759113	7.887845	38.115021	777.988930	-41.380991	16.805517	-45.000000	44.993708	-45.000000	-11.778682	-3327.795529	-650.934576	20.395645	180.000000	2164.012370	-170.198701	11.755403	11.948410	14.423927	23.940379	-40.665863	-42.155295	-45.000000	-2092.020809	-3143.159132	20.387226	-180.000000	1435.484192	150.412976	10.498309	-11.413472	
2.9600	-36.371142	-2.892302	8.065719	36.934556	778.530809	-41.539484	16.937232	-45.000000	44.988727	-45.000000	-12.047829	-3327.899327	-650.948512	20.402650	180.000000	2163.980904	-170.652558	11.764940	11.960983	14.266570	24.188610	-40.331199	-42.452240	-45.000000	-2092.141722	-3143.142171	20.331865	-180.000000	1435.443131	149.692502	10.466695	-11.417210	
2.9700	-36.450553	-3.052327	8.248180	35.633595	779.182642	-41.698896	17.082096	-45.000000	44.979812	-45.000000	-12.340208	-3328.013416	-650.961455	20.425201	180.000000	2163.944033	-171.110234	11.782023	11.995039	14.101223	24.479859	-39.973688	-42.770347	-45.000000	-2092.254540	-3143.113935	20.278388	-180.000000	1435.403630	148.940311	10.429721	-11.424111	
2.9800	-36.538161	-3.232978	8.431110	34.209159	779.951217	-41.858940	17.231860	-45.000000	44.963822	-45.000000	-12.648908	-3328.144942	-650.976348	20.465530	180.000000	2163.903012	-171.564315	11.806573	12.045989	13.911628	24.791131	-39.594714	-43.106814	-45.000000	-2092.355413	-3143.077081	20.236998	-180.000000	1435.368717	148.181990	10.382315	-11.441569	
2.9900	-36.628737	-3.448421	8.628137	32.658573	780.842078	-42.018458	17.398489	-45.000000	44.935239	-45.000000	-13.002990	-3328.296366	-650.987187	20.532657	180.000000	2163.853121	-172.016277	11.841049	12.125763	13.698331	25.119607	-39.199356	-43.446256	-45.000000	-2092.418067	-3143.048199	20.215662	-180.000000	1435.341353	147.429637	10.335942	-11.462308	
3.0000	-36.719325	-3.699645	8.849344	30.980264	781.859135	-42.175566	17.573083	-45.000000	44.883872	-45.000000	-13.405117	-3328.463536	-650.991308	20.614076	180.000000	2163.791574	-172.465338	11.884387	12.220272	13.450325	25.433991	-38.790587	-43.783442	-45.000000	-2092.449950	-3143.024457	20.203282	-180.000000	1435.317762	146.711292	10.296351	-11.488640	
3.0100	-36.811673	-4.002882	9.112278	29.173934	783.004677	-42.327939	17.757921	-45.000000	44.792325	-45.000000	-13.897596	-3328.630543	-650.984881	20.705748	180.000000	2163.716387	-172.918024	11.935217	12.327728	13.176741	25.758811	-38.357465	-44.124140	-45.000000	-2092.461904	-3143.007012	20.189118	-180.000000	1435.298745	146.040080	10.268134	-11.519074	
3.0200	-36.890278	-4.369094	9.441257	27.241171	784.279476	-42.473220	17.947418	-45.000000	44.627033	-45.000000	-14.522607	-3328.785140	-650.949167	20.811768	180.000000	2163.630715	-173.377586	11.990515	12.443310	12.861826	26.052226	-37.912997	-44.422218	-45.000000	-2092.423184	-3142.995262	20.168843	-180.000000	1435.291440	145.450439	10.263802	-11.547571	
3.0300	-36.952665	-4.805835	9.852000	25.184857	785.683456	-42.609419	18.135592	-45.000000	44.366780	-45.000000	-15.318151	-3328.917000	-650.876751	20.936660	180.000000	2163.536259	-173.848662	12.048971	12.567873	12.506592	26.314346	-37.457723	-44.668697	-45.000000	-2092.324540	-3142.988646	20.143165	-180.000000	1435.298959	144.979425	10.284824	-11.576943	
3.0400	-36.986913	-5.331279	10.375003	23.009528	787.215798	-42.735237	18.328625	-45.000000	43.990617	-45.000000	-16.332642	-3329.017749	-650.753726	21.082752	180.000000	2163.437927	-174.340489	12.106712	12.695895	12.093188	26.517300	-36.994250	-44.837886	-45.000000	-2092.147473	-3142.987084	20.107270	-180.000000	1435.329082	144.690735	10.339759	-11.606284	
3.0500	-36.995833	-5.937630	11.001308	20.720592	788.875438	-42.850129	18.528605	-45.000000	43.517542	-45.000000	-17.547860	-3329.093736	-650.581364	21.249461	180.000000	2163.338020	-174.856252	12.162407	12.827087	11.631530	26.673088	-36.526162	-44.942184	-45.000000	-2091.897771	-3142.991370	20.061928	-180.000000	1435.381415	144.633388	10.421971	-11.645265	
3.0600	-36.956848	-6.754184	11.875067	18.324168	790.661067	-42.954265	18.804732	-45.000000	42.887323	-45.000000	-19.215620	-3329.121798	-650.337094	21.454662	180.000000	2163.233778	-175.447700	12.210386	12.969324	11.050277	26.788030	-35.977736	-44.986076	-45.000000	-2091.568506	-3143.025753	19.995914	-180.000000	1435.480564	144.938708	10.549362	-11.687021	
3.0700	-36.899626	-7.630860	12.823222	15.827201	792.570675	-43.047985	19.102875	-45.000000	42.216663	-45.000000	-21.012861	-3329.150284	-650.057386	21.673714	180.000000	2163.132949	-176.074123	12.254488	13.114619	10.437705	26.887564	-35.425724	-45.000000	-45.000000	-2091.189253	-3143.064857	19.926885	-180.000000	1435.595467	145.616117	10.686945	-11.769976	
